<?xml version="1.0" encoding="utf-8"?>
<!-- Generator: Adobe Illustrator 26.0.2, SVG Export Plug-In . SVG Version: 6.00 Build 0)  -->
<svg version="1.1" id="Layer_1" xmlns="http://www.w3.org/2000/svg" xmlns:xlink="http://www.w3.org/1999/xlink" x="0px" y="0px"
	 viewBox="0 0 385.3 143.9" style="enable-background:new 0 0 385.3 143.9;" xml:space="preserve">
<style type="text/css">
	.st0{fill:#1A33F5;}
</style>
<path class="st0" d="M195.3,140.8C195.3,140.8,195.3,140.8,195.3,140.8c-5.4,0-9.7-4.3-9.7-9.7l0-116.5c0-5.4,4.3-9.7,9.7-9.7
	c0,0,0,0,0,0c5.4,0,9.7,4.3,9.7,9.7l0,116.5C205,136.4,200.7,140.8,195.3,140.8z"/>
<path class="st0" d="M292.4,140.8h-32.5c-19.6,0-35.5-15.9-35.5-35.5V14.5c0-5.4,4.3-9.7,9.7-9.7s9.7,4.3,9.7,9.7v90.7
	c0,8.9,7.2,16.1,16.1,16.1h32.5c5.4,0,9.7,4.3,9.7,9.7S297.8,140.8,292.4,140.8z"/>
<path class="st0" d="M374.9,140.8h-32.5c-19.6,0-35.5-15.9-35.5-35.5V14.5c0-5.4,4.3-9.7,9.7-9.7c5.4,0,9.7,4.3,9.7,9.7v90.7
	c0,8.9,7.2,16.1,16.1,16.1h32.5c5.4,0,9.7,4.3,9.7,9.7S380.3,140.8,374.9,140.8z"/>
<path class="st0" d="M161.3,140.8c-2.8,0-5.5-1.2-7.5-3.5l-42.3-50.8c-6.6-7.9-6.6-19.4,0-27.4l42.3-50.8c3.4-4.1,9.6-4.7,13.7-1.2
	c4.1,3.4,4.7,9.6,1.2,13.7l-42.3,50.8c-0.6,0.7-0.6,1.8,0,2.5l42.3,50.8c3.4,4.1,2.9,10.2-1.2,13.7
	C165.7,140,163.5,140.8,161.3,140.8z"/>
<path class="st0" d="M62.7,140.8H36.6c-19.6,0-35.5-15.9-35.5-35.5v-3.3c0-5.4,4.3-9.7,9.7-9.7s9.7,4.3,9.7,9.7v3.3
	c0,8.9,7.2,16.1,16.1,16.1h26.1c8.9,0,16.1-7.2,16.1-16.1v-0.4c0-6.7-4.2-12.7-10.4-15.1L24.1,73.2c-13.8-5.2-23-18.5-23-33.3
	c0-19.4,15.8-35.1,35.1-35.1h26.8c19.4,0,35.1,15.8,35.1,35.1v3.7c0,5.4-4.3,9.7-9.7,9.7c-5.4,0-9.7-4.3-9.7-9.7v-3.7
	c0-8.7-7.1-15.7-15.7-15.7H36.2c-8.7,0-15.7,7.1-15.7,15.7c0,6.7,4.2,12.7,10.4,15.1l44.2,16.6c13.8,5.2,23,18.5,23,33.3v0.4
	C98.2,124.8,82.3,140.8,62.7,140.8z"/>
</svg>
